<?xml version="1.0" standalone="no"?>
<!DOCTYPE svg PUBLIC "-//W3C//DTD SVG 20010904//EN"
 "http://www.w3.org/TR/2001/REC-SVG-20010904/DTD/svg10.dtd">
<svg version="1.0" xmlns="http://www.w3.org/2000/svg"
 width="512.000000pt" height="512.000000pt" viewBox="0 0 512.000000 512.000000"
 preserveAspectRatio="xMidYMid meet">
<metadata>
Created by potrace 1.11, written by Peter Selinger 2001-2013
</metadata>
<g transform="translate(0.000000,512.000000) scale(0.100000,-0.100000)"
fill="#000000" stroke="none">
<path d="M0 2560 l0 -2560 2560 0 2560 0 0 2560 0 2560 -2560 0 -2560 0 0
-2560z m3948 1425 c2 -2 -35 -80 -82 -173 -47 -94 -86 -175 -86 -181 0 -8 -93
-12 -297 -13 -164 -1 -314 -3 -333 -4 -19 -1 -115 -3 -212 -3 l-178 -1 0 -491
0 -492 -92 -191 c-50 -105 -95 -195 -100 -200 -4 -6 -49 75 -100 180 l-93 189
-5 503 -5 503 -503 -1 -503 -1 -92 188 c-50 104 -93 191 -95 196 -3 6 2768 -2
2776 -8z m-1956 -762 c92 -186 256 -521 367 -745 110 -225 202 -408 204 -408
4 0 80 150 295 590 77 157 208 423 291 593 l151 307 215 0 c141 0 215 -4 215
-10 0 -6 -29 -70 -64 -143 -35 -73 -124 -258 -198 -412 -75 -154 -185 -381
-246 -505 -148 -302 -259 -533 -474 -980 -100 -206 -182 -376 -182 -377 -3 -3
-38 67 -136 272 -82 169 -151 312 -343 705 -54 113 -223 462 -374 775 -151
314 -283 584 -293 600 -10 17 -21 40 -25 53 l-6 22 218 0 219 0 166 -337z"/>
</g>
</svg>
